<?xml version="1.0" ?><svg id="Layer_1" style="enable-background:new 0 0 512 512;" version="1.1" viewBox="0 0 512 512" xml:space="preserve" xmlns="http://www.w3.org/2000/svg" xmlns:xlink="http://www.w3.org/1999/xlink"><style type="text/css">
	.st0{fill:none;stroke:#000000;stroke-width:4.2794;stroke-miterlimit:10;}
</style><g id="XMLID_2318_"><path d="M350,374.3c-3.4-3.2-4.7-4.4-9.4-8.9c2.2,16.3,3.8,29,5.6,41.8c3.1,22-10.1,29.6-32.5,24.7   c-19.8-4.3-19.8-16.6-20.3-30.7c-0.7-20,3.4-41.4-2.6-59.6c-5.8-17.7-5.4-34.4-4.1-51.2c2-24.6,7.6-48.9,11.8-73.3   c1.3-7.4,3.8-14.5,4.9-21.9c4.4-29.7,0-33.9-29.4-32c-9.4,0.6-21.2,6.9-26.4-4.4c-7.5,1.8-14.8,5.3-21.8,4.7   c-13.3-1.1-16.1,6.1-14.9,16.2c2.1,17.1,5.2,34.1,8,51.1c2.1,12.7,6.7,25.6,5.9,38.1c-2.9,49.6-7.5,99.2-11.5,148.7   c-0.2,2.9-1,5.8-1.9,10.6c-13.4,0.9-26.8,2.8-40.1,2.1c-3.5-0.2-9.3-8.2-9.4-12.8c-0.3-9.3,3-18.7,3.9-28.1   c6.4-72.4,12.2-144.8,19-217.1c3.5-37.2,14.2-70.9,51.6-88.7c20.1-9.6,30.5-4.2,49,7.1c38.7,23.6,40.4,60.7,40.9,98.1   c0.8,59.3,8.2,117.6,22.1,175.1C349.1,366.4,349.2,368.8,350,374.3z" id="XMLID_122_"/><ellipse class="st0" cx="256" cy="175.5" id="XMLID_7_" rx="57.1" ry="74.5"/></g></svg>