<?xml version="1.0" ?><svg id="Layer_1" style="enable-background:new 0 0 512 512;" version="1.1" viewBox="0 0 512 512" xml:space="preserve" xmlns="http://www.w3.org/2000/svg" xmlns:xlink="http://www.w3.org/1999/xlink"><style type="text/css">
	.st0{fill:none;stroke:#000000;stroke-width:5.8296;stroke-miterlimit:10;}
</style><g id="XMLID_2832_"><path d="M341.1,317.7c3.4-5.6,6.5-8.8,7.3-12.4c3.1-14,10.6-18.6,25.5-19c24.7-0.8,39.2-25,35.6-54.3   c-3.1-25.2-26-43.2-50.4-39.3c-6.5,1.1-12.9,3.1-19.1,4.7c-46.3-72.2-106.7-71.5-167.4,1.9c-21.2-10.3-41.9-11.2-58.8,8.5   c-13.2,15.4-15.1,33.3-7,51.6c12.7,28.5,36.8,30.4,62.5,23.6c4.1,10.2,7.4,18.5,9.8,24.4c8-20.3,16-40.8,25.7-65.5   c23,29.5,47.6,37.9,77.9,35.1C319.7,273.3,327.5,279.4,341.1,317.7z" id="XMLID_123_"/><ellipse class="st0" cx="261.8" cy="266.9" id="XMLID_4_" rx="77.7" ry="101.5"/></g></svg>