<?xml version="1.0" ?><svg id="Layer_1" style="enable-background:new 0 0 512 512;" version="1.1" viewBox="0 0 512 512" xml:space="preserve" xmlns="http://www.w3.org/2000/svg" xmlns:xlink="http://www.w3.org/1999/xlink"><style type="text/css">
	.st0{fill:none;stroke:#000000;stroke-width:5.8296;stroke-miterlimit:10;}
</style><g id="XMLID_2721_"><path d="M359,333.1c-43.6,4.7-70.8-28.2-57.7-65.2c3.4-9.5,9-18.3,13.7-27.3c23.7-46.3,17.9-85.6-22-119   c-45.7-38.3-35-39.5-73.4,6.8c-28.9,34.8-23.7,78-3.8,113.8c25.4,45.6,17.6,104.5-21.3,142.3c-24.3,23.6-39.2,50-34.7,85.5   c-22.3-13.5-30.7-46.5-20.5-76.7c0.7-1.9,1.1-4.1,2.4-5.6c27.5-34.2,23.1-69.3,10.3-109.1c-8-25-6-55.9,0.1-82.2   c8.7-38,23.6-74.9,39-111c7.9-18.6,22.2-34.9,47-32.7c1.9,0.2,3.9-0.7,5.7-1.4c34.4-14.6,51-12.9,75.2,14.3   c45.3,50.7,69.8,108.6,52.1,177.8c-3.1,12.2-10.1,23.7-16.8,34.7C343.1,296.5,338.1,314.1,359,333.1z" id="XMLID_111_"/><ellipse class="st0" cx="265.4" cy="177.7" id="XMLID_24_" rx="77.7" ry="101.5"/></g></svg>