<?xml version="1.0" ?><svg id="Layer_1" style="enable-background:new 0 0 512 512;" version="1.1" viewBox="0 0 512 512" xml:space="preserve" xmlns="http://www.w3.org/2000/svg" xmlns:xlink="http://www.w3.org/1999/xlink"><style type="text/css">
	.st0{fill:none;stroke:#000000;stroke-width:5.8296;stroke-miterlimit:10;}
</style><g id="XMLID_2497_"><path d="M342.2,330.4c-2.5-10.3-3.3-19.4-6.8-27.3c-6.1-13.7-13.3-25.3-32.8-23.6c-8.5,0.8-17.7-7.6-28-12.5   c0,7.8,0,14.9,0,27.8c-12.9-14.7-22.4-25.5-35.1-40c-1.4,12.5-2.4,20.7-3.3,28.8c-1.6,1.7-3.2,3.4-4.8,5.1   c-9.2-12.1-18.3-24.1-30.1-39.6c-11.5,29-21,52.8-32.2,81c-6.2-12.1-12.9-21.8-16.2-32.5c-11.3-36.8-16.8-71.8,3.3-109.9   c12.2-23.2,23-35.1,49-33.1c5.7,0.4,12.1-5.2,17.7-8.8c23.1-14.6,65.9-16.9,87.8,9.1c2.8,3.3,8.1,4.5,12.3,6.5   c16.7,7.8,30.4,17.9,31.3,38.6c0.1,2.4,1.9,4.8,3.1,7C377.7,245,371.7,296.7,342.2,330.4z" id="XMLID_104_"/><ellipse class="st0" cx="256" cy="275.5" id="XMLID_18_" rx="77.7" ry="101.5"/></g></svg>