<?xml version="1.0" ?><svg id="Layer_1" style="enable-background:new 0 0 512 512;" version="1.1" viewBox="0 0 512 512" xml:space="preserve" xmlns="http://www.w3.org/2000/svg" xmlns:xlink="http://www.w3.org/1999/xlink"><style type="text/css">
	.st0{fill:none;stroke:#000000;stroke-width:5.8296;stroke-miterlimit:10;}
</style><g id="XMLID_2553_"><path d="M422.1,403.6c-20.4-4.7-35.8-15.2-41.1-31.9c-7.8-24.6-18.9-49.4-5.2-77.2c13.6-27.5,8.7-54-9.3-69.7   c-4.2-3.7-12.4-6.6-17-4.9c-5.2,1.9-10,8.7-12.2,14.5c-3.4,8.7-4.4,18.4-7.5,32.6c-4.1-8.9-6-14.1-8.6-18.8   c-9.9-17.3-25.8-26-44.6-21.2c-33.1,8.5-58.7-0.6-79.7-26.5c-1.5-1.9-4.3-2.9-9.4-6.1c-6.9,24.8-13.3,47.9-21.3,77   c-3.1-12.8-3.5-21.1-7.3-27.4c-3.3-5.5-10.5-12.4-15.7-12.1c-5.6,0.3-13.9,7.2-15.6,12.8c-6.1,20.7,2.4,38.7,14.8,54.9   c10.3,13.5,21.4,26.5,31,40.5c4.4,6.3,6.2,14.4,6,25.5c-13.7-6.2-27.4-12.5-41-18.7c0.4,17.6,0.4,17.6,31.6,44.7   C99.3,383.8,54.7,315.7,76.5,252c10.8-31.7,38.2-39.7,62.9-52.9c5.9-3.2,13-9.8,14-15.8c11-68.7,64.1-79.7,113.7-73.3   c29.9,3.8,48.1,26.9,57,53.2c7.6,22.5,24.1,27.7,42,31.1c55.5,10.5,85.9,57.6,71.4,113.1c-3.6,13.8-8.5,27.4-10.8,41.4   c-2.2,13.1-1.7,26.5-5.4,41.2c-5.2-11.9-10.5-23.8-15.4-35.1C397.5,368.4,397.5,368.4,422.1,403.6z" id="XMLID_113_"/><ellipse class="st0" cx="248.6" cy="225.4" id="XMLID_83_" rx="77.7" ry="101.5"/></g></svg>