<?xml version="1.0" encoding="UTF-8"?>
<svg width="161px" height="31px" viewBox="0 0 161 31" version="1.1" xmlns="http://www.w3.org/2000/svg" xmlns:xlink="http://www.w3.org/1999/xlink">
    <!-- Generator: Sketch 45.2 (43514) - http://www.bohemiancoding.com/sketch -->
    <title>ANNA KI</title>
    <desc>Created with Sketch.</desc>
    <defs>
        <linearGradient x1="50%" y1="0%" x2="50%" y2="100%" id="linearGradient-1">
            <stop stop-color="#00A1F1" stop-opacity="0.960767663" offset="0%"></stop>
            <stop stop-color="#8028BA" offset="100%"></stop>
        </linearGradient>
    </defs>
    <g id="Page-1" stroke="none" stroke-width="1" fill="none" fill-rule="evenodd">
        <path d="M22.96875,31 L19.2363281,21.4638672 L7.21875,21.4638672 L3.52734375,31 L0,31 L11.8535156,0.89453125 L14.7861328,0.89453125 L26.578125,31 L22.96875,31 Z M18.1494141,18.3261719 L14.6630859,9.03613281 C14.2119118,7.86034568 13.7470727,6.41797729 13.2685547,4.70898438 C12.9677719,6.02149094 12.5371122,7.46385933 11.9765625,9.03613281 L8.44921875,18.3261719 L18.1494141,18.3261719 Z M54.1201172,31 L50.1416016,31 L33.7558594,5.83691406 L33.5917969,5.83691406 C33.810548,8.79005383 33.9199219,11.497058 33.9199219,13.9580078 L33.9199219,31 L30.7001953,31 L30.7001953,1.01757812 L34.6376953,1.01757812 L50.9824219,26.078125 L51.1464844,26.078125 C51.1191405,25.7089825 51.0576177,24.5229592 50.9619141,22.5200195 C50.8662105,20.5170798 50.8320311,19.0849652 50.859375,18.2236328 L50.859375,1.01757812 L54.1201172,1.01757812 L54.1201172,31 Z M85.7841797,31 L81.8056641,31 L65.4199219,5.83691406 L65.2558594,5.83691406 C65.4746105,8.79005383 65.5839844,11.497058 65.5839844,13.9580078 L65.5839844,31 L62.3642578,31 L62.3642578,1.01757812 L66.3017578,1.01757812 L82.6464844,26.078125 L82.8105469,26.078125 C82.783203,25.7089825 82.7216802,24.5229592 82.6259766,22.5200195 C82.530273,20.5170798 82.4960936,19.0849652 82.5234375,18.2236328 L82.5234375,1.01757812 L85.7841797,1.01757812 L85.7841797,31 Z M112.875,31 L109.142578,21.4638672 L97.125,21.4638672 L93.4335938,31 L89.90625,31 L101.759766,0.89453125 L104.692383,0.89453125 L116.484375,31 L112.875,31 Z M108.055664,18.3261719 L104.569336,9.03613281 C104.118162,7.86034568 103.653323,6.41797729 103.174805,4.70898438 C102.874022,6.02149094 102.443362,7.46385933 101.882812,9.03613281 L98.3554688,18.3261719 L108.055664,18.3261719 Z M153.172852,31 L149.071289,31 L138.140625,16.4599609 L135.00293,19.2490234 L135.00293,31 L131.516602,31 L131.516602,1.01757812 L135.00293,1.01757812 L135.00293,15.8857422 L148.599609,1.01757812 L152.72168,1.01757812 L140.663086,14.0400391 L153.172852,31 Z M157.294922,31 L157.294922,1.01757812 L160.78125,1.01757812 L160.78125,31 L157.294922,31 Z" id="ANNA-KI" fill="url(#linearGradient-1)"></path>
    </g>
</svg>